<mxfile host="app.diagrams.net" modified="2024-05-02T04:04:45.546Z" agent="Mozilla/5.0 (Windows NT 10.0; Win64; x64) AppleWebKit/537.36 (KHTML, like Gecko) Chrome/123.0.0.0 Safari/537.36" etag="J9-1by47h8NZRzGVm4Tl" version="24.3.1" type="device">
  <diagram name="Page-1" id="A9vWEReAYBzBT5MjE4kZ">
    <mxGraphModel dx="2670" dy="1926" grid="1" gridSize="10" guides="1" tooltips="1" connect="1" arrows="1" fold="1" page="1" pageScale="1" pageWidth="827" pageHeight="1169" math="0" shadow="0">
      <root>
        <mxCell id="0" />
        <mxCell id="1" parent="0" />
        <mxCell id="DAMM4ajbRQ8YolOH-QEx-1" value="&lt;u&gt;cname&lt;/u&gt;" style="ellipse;whiteSpace=wrap;html=1;" parent="1" vertex="1">
          <mxGeometry x="40" y="10" width="90" height="40" as="geometry" />
        </mxCell>
        <mxCell id="DAMM4ajbRQ8YolOH-QEx-2" value="" style="endArrow=none;html=1;rounded=0;exitX=0;exitY=0;exitDx=0;exitDy=0;entryX=0.76;entryY=0.97;entryDx=0;entryDy=0;entryPerimeter=0;" parent="1" source="DAMM4ajbRQ8YolOH-QEx-3" target="DAMM4ajbRQ8YolOH-QEx-1" edge="1">
          <mxGeometry width="50" height="50" relative="1" as="geometry">
            <mxPoint x="200" y="190" as="sourcePoint" />
            <mxPoint x="120" y="60" as="targetPoint" />
          </mxGeometry>
        </mxCell>
        <mxCell id="DAMM4ajbRQ8YolOH-QEx-3" value="College" style="whiteSpace=wrap;html=1;align=center;" parent="1" vertex="1">
          <mxGeometry x="120" y="120" width="100" height="40" as="geometry" />
        </mxCell>
        <mxCell id="DAMM4ajbRQ8YolOH-QEx-4" value="coffice" style="ellipse;whiteSpace=wrap;html=1;" parent="1" vertex="1">
          <mxGeometry x="160" y="10" width="90" height="40" as="geometry" />
        </mxCell>
        <mxCell id="DAMM4ajbRQ8YolOH-QEx-7" value="" style="endArrow=none;html=1;rounded=0;exitX=0.75;exitY=0;exitDx=0;exitDy=0;entryX=0.413;entryY=1.03;entryDx=0;entryDy=0;entryPerimeter=0;" parent="1" source="DAMM4ajbRQ8YolOH-QEx-3" target="DAMM4ajbRQ8YolOH-QEx-4" edge="1">
          <mxGeometry width="50" height="50" relative="1" as="geometry">
            <mxPoint x="155" y="131" as="sourcePoint" />
            <mxPoint x="120" y="60" as="targetPoint" />
          </mxGeometry>
        </mxCell>
        <mxCell id="DAMM4ajbRQ8YolOH-QEx-8" value="cphone" style="ellipse;whiteSpace=wrap;html=1;" parent="1" vertex="1">
          <mxGeometry x="240" y="50" width="90" height="40" as="geometry" />
        </mxCell>
        <mxCell id="DAMM4ajbRQ8YolOH-QEx-9" value="" style="endArrow=none;html=1;rounded=0;exitX=1;exitY=0.25;exitDx=0;exitDy=0;entryX=0.413;entryY=1.03;entryDx=0;entryDy=0;entryPerimeter=0;" parent="1" source="DAMM4ajbRQ8YolOH-QEx-3" target="DAMM4ajbRQ8YolOH-QEx-8" edge="1">
          <mxGeometry width="50" height="50" relative="1" as="geometry">
            <mxPoint x="210" y="160" as="sourcePoint" />
            <mxPoint x="175" y="100" as="targetPoint" />
          </mxGeometry>
        </mxCell>
        <mxCell id="DAMM4ajbRQ8YolOH-QEx-10" value="&lt;u&gt;dname&lt;/u&gt;" style="ellipse;whiteSpace=wrap;html=1;" parent="1" vertex="1">
          <mxGeometry x="267" y="240" width="90" height="40" as="geometry" />
        </mxCell>
        <mxCell id="DAMM4ajbRQ8YolOH-QEx-11" value="" style="endArrow=none;html=1;rounded=0;exitX=0;exitY=0;exitDx=0;exitDy=0;" parent="1" source="DAMM4ajbRQ8YolOH-QEx-12" edge="1">
          <mxGeometry width="50" height="50" relative="1" as="geometry">
            <mxPoint x="439.83" y="390" as="sourcePoint" />
            <mxPoint x="324" y="280" as="targetPoint" />
          </mxGeometry>
        </mxCell>
        <mxCell id="DAMM4ajbRQ8YolOH-QEx-12" value="Department" style="whiteSpace=wrap;html=1;align=center;" parent="1" vertex="1">
          <mxGeometry x="359.83" y="320" width="100" height="40" as="geometry" />
        </mxCell>
        <mxCell id="DAMM4ajbRQ8YolOH-QEx-13" value="&lt;u&gt;dcode&lt;/u&gt;" style="ellipse;whiteSpace=wrap;html=1;" parent="1" vertex="1">
          <mxGeometry x="337" y="210" width="90" height="40" as="geometry" />
        </mxCell>
        <mxCell id="DAMM4ajbRQ8YolOH-QEx-14" value="" style="endArrow=none;html=1;rounded=0;exitX=0.75;exitY=0;exitDx=0;exitDy=0;entryX=0.633;entryY=1.029;entryDx=0;entryDy=0;entryPerimeter=0;" parent="1" source="DAMM4ajbRQ8YolOH-QEx-12" target="DAMM4ajbRQ8YolOH-QEx-13" edge="1">
          <mxGeometry width="50" height="50" relative="1" as="geometry">
            <mxPoint x="394.83" y="331" as="sourcePoint" />
            <mxPoint x="359.83" y="260" as="targetPoint" />
          </mxGeometry>
        </mxCell>
        <mxCell id="DAMM4ajbRQ8YolOH-QEx-15" value="doffice" style="ellipse;whiteSpace=wrap;html=1;" parent="1" vertex="1">
          <mxGeometry x="479.83" y="250" width="90" height="40" as="geometry" />
        </mxCell>
        <mxCell id="DAMM4ajbRQ8YolOH-QEx-16" value="" style="endArrow=none;html=1;rounded=0;exitX=1;exitY=0.25;exitDx=0;exitDy=0;entryX=0.413;entryY=1.03;entryDx=0;entryDy=0;entryPerimeter=0;" parent="1" source="DAMM4ajbRQ8YolOH-QEx-12" target="DAMM4ajbRQ8YolOH-QEx-15" edge="1">
          <mxGeometry width="50" height="50" relative="1" as="geometry">
            <mxPoint x="449.83" y="360" as="sourcePoint" />
            <mxPoint x="414.83" y="300" as="targetPoint" />
          </mxGeometry>
        </mxCell>
        <mxCell id="DAMM4ajbRQ8YolOH-QEx-17" value="dphone" style="ellipse;whiteSpace=wrap;html=1;" parent="1" vertex="1">
          <mxGeometry x="527" y="315" width="90" height="40" as="geometry" />
        </mxCell>
        <mxCell id="DAMM4ajbRQ8YolOH-QEx-18" value="" style="endArrow=none;html=1;rounded=0;exitX=1;exitY=0.75;exitDx=0;exitDy=0;entryX=0;entryY=0.5;entryDx=0;entryDy=0;" parent="1" source="DAMM4ajbRQ8YolOH-QEx-12" target="DAMM4ajbRQ8YolOH-QEx-17" edge="1">
          <mxGeometry width="50" height="50" relative="1" as="geometry">
            <mxPoint x="519.83" y="380" as="sourcePoint" />
            <mxPoint x="576.9999999999997" y="341.1999999999998" as="targetPoint" />
          </mxGeometry>
        </mxCell>
        <mxCell id="DAMM4ajbRQ8YolOH-QEx-19" value="&lt;u&gt;co_name&lt;/u&gt;" style="ellipse;whiteSpace=wrap;html=1;" parent="1" vertex="1">
          <mxGeometry x="970" y="430" width="90" height="40" as="geometry" />
        </mxCell>
        <mxCell id="DAMM4ajbRQ8YolOH-QEx-20" value="" style="endArrow=none;html=1;rounded=0;exitX=0.611;exitY=0.984;exitDx=0;exitDy=0;exitPerimeter=0;" parent="1" source="DAMM4ajbRQ8YolOH-QEx-21" target="DAMM4ajbRQ8YolOH-QEx-19" edge="1">
          <mxGeometry width="50" height="50" relative="1" as="geometry">
            <mxPoint x="940" y="400" as="sourcePoint" />
            <mxPoint x="860" y="270" as="targetPoint" />
          </mxGeometry>
        </mxCell>
        <mxCell id="DAMM4ajbRQ8YolOH-QEx-21" value="Course" style="whiteSpace=wrap;html=1;align=center;" parent="1" vertex="1">
          <mxGeometry x="820" y="370" width="100" height="40" as="geometry" />
        </mxCell>
        <mxCell id="DAMM4ajbRQ8YolOH-QEx-22" value="&lt;u&gt;co_code&lt;/u&gt;" style="ellipse;whiteSpace=wrap;html=1;" parent="1" vertex="1">
          <mxGeometry x="900" y="220" width="90" height="40" as="geometry" />
        </mxCell>
        <mxCell id="DAMM4ajbRQ8YolOH-QEx-23" value="" style="endArrow=none;html=1;rounded=0;exitX=0.75;exitY=0;exitDx=0;exitDy=0;entryX=0.413;entryY=1.03;entryDx=0;entryDy=0;entryPerimeter=0;" parent="1" source="DAMM4ajbRQ8YolOH-QEx-21" target="DAMM4ajbRQ8YolOH-QEx-22" edge="1">
          <mxGeometry width="50" height="50" relative="1" as="geometry">
            <mxPoint x="895" y="341" as="sourcePoint" />
            <mxPoint x="860" y="270" as="targetPoint" />
          </mxGeometry>
        </mxCell>
        <mxCell id="DAMM4ajbRQ8YolOH-QEx-24" value="co_level" style="ellipse;whiteSpace=wrap;html=1;" parent="1" vertex="1">
          <mxGeometry x="980" y="260" width="90" height="40" as="geometry" />
        </mxCell>
        <mxCell id="DAMM4ajbRQ8YolOH-QEx-25" value="" style="endArrow=none;html=1;rounded=0;exitX=1;exitY=0.25;exitDx=0;exitDy=0;entryX=0.413;entryY=1.03;entryDx=0;entryDy=0;entryPerimeter=0;" parent="1" source="DAMM4ajbRQ8YolOH-QEx-21" target="DAMM4ajbRQ8YolOH-QEx-24" edge="1">
          <mxGeometry width="50" height="50" relative="1" as="geometry">
            <mxPoint x="950" y="370" as="sourcePoint" />
            <mxPoint x="915" y="310" as="targetPoint" />
          </mxGeometry>
        </mxCell>
        <mxCell id="DAMM4ajbRQ8YolOH-QEx-26" value="co_credit" style="ellipse;whiteSpace=wrap;html=1;" parent="1" vertex="1">
          <mxGeometry x="1040" y="310" width="90" height="40" as="geometry" />
        </mxCell>
        <mxCell id="DAMM4ajbRQ8YolOH-QEx-27" value="" style="endArrow=none;html=1;rounded=0;exitX=1;exitY=0.75;exitDx=0;exitDy=0;entryX=0.413;entryY=1.03;entryDx=0;entryDy=0;entryPerimeter=0;" parent="1" source="DAMM4ajbRQ8YolOH-QEx-21" target="DAMM4ajbRQ8YolOH-QEx-26" edge="1">
          <mxGeometry width="50" height="50" relative="1" as="geometry">
            <mxPoint x="1020" y="390" as="sourcePoint" />
            <mxPoint x="975" y="360" as="targetPoint" />
          </mxGeometry>
        </mxCell>
        <mxCell id="DAMM4ajbRQ8YolOH-QEx-28" value="co_desc" style="ellipse;whiteSpace=wrap;html=1;" parent="1" vertex="1">
          <mxGeometry x="1010" y="380" width="90" height="40" as="geometry" />
        </mxCell>
        <mxCell id="DAMM4ajbRQ8YolOH-QEx-29" value="" style="endArrow=none;html=1;rounded=0;exitX=1;exitY=1;exitDx=0;exitDy=0;entryX=0;entryY=0;entryDx=0;entryDy=0;" parent="1" source="DAMM4ajbRQ8YolOH-QEx-21" target="DAMM4ajbRQ8YolOH-QEx-28" edge="1">
          <mxGeometry width="50" height="50" relative="1" as="geometry">
            <mxPoint x="840" y="385" as="sourcePoint" />
            <mxPoint x="840" y="325" as="targetPoint" />
          </mxGeometry>
        </mxCell>
        <mxCell id="DAMM4ajbRQ8YolOH-QEx-32" value="Instructor" style="whiteSpace=wrap;html=1;align=center;" parent="1" vertex="1">
          <mxGeometry x="587" y="40" width="100" height="40" as="geometry" />
        </mxCell>
        <mxCell id="DAMM4ajbRQ8YolOH-QEx-33" value="ins_office" style="ellipse;whiteSpace=wrap;html=1;" parent="1" vertex="1">
          <mxGeometry x="720" y="-30" width="90" height="40" as="geometry" />
        </mxCell>
        <mxCell id="DAMM4ajbRQ8YolOH-QEx-34" value="" style="endArrow=none;html=1;rounded=0;exitX=0.75;exitY=0;exitDx=0;exitDy=0;entryX=0;entryY=1;entryDx=0;entryDy=0;" parent="1" source="DAMM4ajbRQ8YolOH-QEx-32" target="DAMM4ajbRQ8YolOH-QEx-33" edge="1">
          <mxGeometry width="50" height="50" relative="1" as="geometry">
            <mxPoint x="665" y="146" as="sourcePoint" />
            <mxPoint x="707.1700000000001" y="66.19999999999993" as="targetPoint" />
          </mxGeometry>
        </mxCell>
        <mxCell id="DAMM4ajbRQ8YolOH-QEx-37" value="ins_rank" style="ellipse;whiteSpace=wrap;html=1;" parent="1" vertex="1">
          <mxGeometry x="761.5" y="20" width="90" height="40" as="geometry" />
        </mxCell>
        <mxCell id="DAMM4ajbRQ8YolOH-QEx-38" value="" style="endArrow=none;html=1;rounded=0;exitX=1;exitY=0.75;exitDx=0;exitDy=0;entryX=0;entryY=0.5;entryDx=0;entryDy=0;" parent="1" source="DAMM4ajbRQ8YolOH-QEx-32" target="DAMM4ajbRQ8YolOH-QEx-37" edge="1">
          <mxGeometry width="50" height="50" relative="1" as="geometry">
            <mxPoint x="790" y="195" as="sourcePoint" />
            <mxPoint x="800" y="40" as="targetPoint" />
          </mxGeometry>
        </mxCell>
        <mxCell id="DAMM4ajbRQ8YolOH-QEx-39" value="&lt;u&gt;ins_id&lt;/u&gt;" style="ellipse;whiteSpace=wrap;html=1;" parent="1" vertex="1">
          <mxGeometry x="618.5" y="-40" width="90" height="40" as="geometry" />
        </mxCell>
        <mxCell id="DAMM4ajbRQ8YolOH-QEx-40" value="" style="endArrow=none;html=1;rounded=0;exitX=0.25;exitY=0;exitDx=0;exitDy=0;entryX=0.5;entryY=1;entryDx=0;entryDy=0;" parent="1" source="DAMM4ajbRQ8YolOH-QEx-32" target="gwIvNxt496lw3pqiz0SI-6" edge="1">
          <mxGeometry width="50" height="50" relative="1" as="geometry">
            <mxPoint x="610" y="190" as="sourcePoint" />
            <mxPoint x="598.4000000000001" y="118.80000000000007" as="targetPoint" />
          </mxGeometry>
        </mxCell>
        <mxCell id="DAMM4ajbRQ8YolOH-QEx-41" value="stud_mname" style="ellipse;whiteSpace=wrap;html=1;" parent="1" vertex="1">
          <mxGeometry x="10" y="480" width="90" height="40" as="geometry" />
        </mxCell>
        <mxCell id="DAMM4ajbRQ8YolOH-QEx-42" value="" style="endArrow=none;html=1;rounded=0;exitX=0;exitY=0;exitDx=0;exitDy=0;entryX=0.5;entryY=1;entryDx=0;entryDy=0;" parent="1" source="DAMM4ajbRQ8YolOH-QEx-43" target="DAMM4ajbRQ8YolOH-QEx-41" edge="1">
          <mxGeometry width="50" height="50" relative="1" as="geometry">
            <mxPoint x="190" y="650" as="sourcePoint" />
            <mxPoint x="110" y="520" as="targetPoint" />
          </mxGeometry>
        </mxCell>
        <mxCell id="DAMM4ajbRQ8YolOH-QEx-43" value="Student" style="whiteSpace=wrap;html=1;align=center;" parent="1" vertex="1">
          <mxGeometry x="110" y="580" width="100" height="40" as="geometry" />
        </mxCell>
        <mxCell id="DAMM4ajbRQ8YolOH-QEx-44" value="stud_lname" style="ellipse;whiteSpace=wrap;html=1;" parent="1" vertex="1">
          <mxGeometry x="20" y="695" width="90" height="40" as="geometry" />
        </mxCell>
        <mxCell id="DAMM4ajbRQ8YolOH-QEx-45" value="" style="endArrow=none;html=1;rounded=0;entryX=0.25;entryY=1;entryDx=0;entryDy=0;exitX=0.608;exitY=0.035;exitDx=0;exitDy=0;exitPerimeter=0;" parent="1" source="DAMM4ajbRQ8YolOH-QEx-44" target="DAMM4ajbRQ8YolOH-QEx-43" edge="1">
          <mxGeometry width="50" height="50" relative="1" as="geometry">
            <mxPoint x="80" y="690" as="sourcePoint" />
            <mxPoint x="82.17000000000007" y="665.5999999999998" as="targetPoint" />
          </mxGeometry>
        </mxCell>
        <mxCell id="DAMM4ajbRQ8YolOH-QEx-46" value="&lt;u&gt;stud_id&lt;/u&gt;" style="ellipse;whiteSpace=wrap;html=1;" parent="1" vertex="1">
          <mxGeometry x="230" y="510" width="90" height="40" as="geometry" />
        </mxCell>
        <mxCell id="DAMM4ajbRQ8YolOH-QEx-47" value="" style="endArrow=none;html=1;rounded=0;exitX=1;exitY=0.25;exitDx=0;exitDy=0;entryX=0.413;entryY=1.03;entryDx=0;entryDy=0;entryPerimeter=0;" parent="1" source="DAMM4ajbRQ8YolOH-QEx-43" target="DAMM4ajbRQ8YolOH-QEx-46" edge="1">
          <mxGeometry width="50" height="50" relative="1" as="geometry">
            <mxPoint x="200" y="620" as="sourcePoint" />
            <mxPoint x="165" y="560" as="targetPoint" />
          </mxGeometry>
        </mxCell>
        <mxCell id="DAMM4ajbRQ8YolOH-QEx-48" value="stud_address" style="ellipse;whiteSpace=wrap;html=1;" parent="1" vertex="1">
          <mxGeometry x="290" y="560" width="90" height="40" as="geometry" />
        </mxCell>
        <mxCell id="DAMM4ajbRQ8YolOH-QEx-49" value="" style="endArrow=none;html=1;rounded=0;exitX=1;exitY=0.75;exitDx=0;exitDy=0;entryX=0.413;entryY=1.03;entryDx=0;entryDy=0;entryPerimeter=0;" parent="1" source="DAMM4ajbRQ8YolOH-QEx-43" target="DAMM4ajbRQ8YolOH-QEx-48" edge="1">
          <mxGeometry width="50" height="50" relative="1" as="geometry">
            <mxPoint x="270" y="640" as="sourcePoint" />
            <mxPoint x="225" y="610" as="targetPoint" />
          </mxGeometry>
        </mxCell>
        <mxCell id="DAMM4ajbRQ8YolOH-QEx-50" value="stud_fname" style="ellipse;whiteSpace=wrap;html=1;" parent="1" vertex="1">
          <mxGeometry x="-30" y="550" width="90" height="40" as="geometry" />
        </mxCell>
        <mxCell id="DAMM4ajbRQ8YolOH-QEx-51" value="" style="endArrow=none;html=1;rounded=0;exitX=0;exitY=0.75;exitDx=0;exitDy=0;entryX=0.76;entryY=0.97;entryDx=0;entryDy=0;entryPerimeter=0;" parent="1" source="DAMM4ajbRQ8YolOH-QEx-43" target="DAMM4ajbRQ8YolOH-QEx-50" edge="1">
          <mxGeometry width="50" height="50" relative="1" as="geometry">
            <mxPoint x="90" y="635" as="sourcePoint" />
            <mxPoint x="90" y="575" as="targetPoint" />
          </mxGeometry>
        </mxCell>
        <mxCell id="viJihvqb_LY_vOOhjmbn-1" value="stud_phone" style="ellipse;whiteSpace=wrap;html=1;" parent="1" vertex="1">
          <mxGeometry x="-10" y="645" width="90" height="40" as="geometry" />
        </mxCell>
        <mxCell id="viJihvqb_LY_vOOhjmbn-2" value="" style="endArrow=none;html=1;rounded=0;entryX=1;entryY=0;entryDx=0;entryDy=0;exitX=0;exitY=1;exitDx=0;exitDy=0;" parent="1" source="DAMM4ajbRQ8YolOH-QEx-43" target="viJihvqb_LY_vOOhjmbn-1" edge="1">
          <mxGeometry width="50" height="50" relative="1" as="geometry">
            <mxPoint x="440" y="590" as="sourcePoint" />
            <mxPoint x="235" y="670" as="targetPoint" />
          </mxGeometry>
        </mxCell>
        <mxCell id="viJihvqb_LY_vOOhjmbn-3" value="stud_maj_code" style="ellipse;whiteSpace=wrap;html=1;" parent="1" vertex="1">
          <mxGeometry x="220" y="660" width="90" height="40" as="geometry" />
        </mxCell>
        <mxCell id="viJihvqb_LY_vOOhjmbn-4" value="" style="endArrow=none;html=1;rounded=0;exitX=0.5;exitY=1;exitDx=0;exitDy=0;" parent="1" source="DAMM4ajbRQ8YolOH-QEx-43" edge="1">
          <mxGeometry width="50" height="50" relative="1" as="geometry">
            <mxPoint x="120" y="660" as="sourcePoint" />
            <mxPoint x="220" y="680" as="targetPoint" />
          </mxGeometry>
        </mxCell>
        <mxCell id="viJihvqb_LY_vOOhjmbn-5" value="stud_dob" style="ellipse;whiteSpace=wrap;html=1;" parent="1" vertex="1">
          <mxGeometry x="110" y="680" width="90" height="40" as="geometry" />
        </mxCell>
        <mxCell id="viJihvqb_LY_vOOhjmbn-6" value="" style="endArrow=none;html=1;rounded=0;exitX=0.5;exitY=1;exitDx=0;exitDy=0;entryX=0.5;entryY=0;entryDx=0;entryDy=0;" parent="1" source="DAMM4ajbRQ8YolOH-QEx-43" edge="1" target="viJihvqb_LY_vOOhjmbn-5">
          <mxGeometry width="50" height="50" relative="1" as="geometry">
            <mxPoint x="50" y="640" as="sourcePoint" />
            <mxPoint x="110" y="700" as="targetPoint" />
          </mxGeometry>
        </mxCell>
        <mxCell id="viJihvqb_LY_vOOhjmbn-7" value="&lt;u&gt;sec_id&lt;/u&gt;" style="ellipse;whiteSpace=wrap;html=1;" parent="1" vertex="1">
          <mxGeometry x="497" y="550" width="90" height="40" as="geometry" />
        </mxCell>
        <mxCell id="viJihvqb_LY_vOOhjmbn-8" value="" style="endArrow=none;html=1;rounded=0;exitX=0;exitY=0;exitDx=0;exitDy=0;entryX=0.76;entryY=0.97;entryDx=0;entryDy=0;entryPerimeter=0;" parent="1" source="viJihvqb_LY_vOOhjmbn-9" target="viJihvqb_LY_vOOhjmbn-7" edge="1">
          <mxGeometry width="50" height="50" relative="1" as="geometry">
            <mxPoint x="657" y="730" as="sourcePoint" />
            <mxPoint x="577" y="600" as="targetPoint" />
          </mxGeometry>
        </mxCell>
        <mxCell id="viJihvqb_LY_vOOhjmbn-9" value="Section" style="whiteSpace=wrap;html=1;align=center;" parent="1" vertex="1">
          <mxGeometry x="577" y="660" width="100" height="40" as="geometry" />
        </mxCell>
        <mxCell id="viJihvqb_LY_vOOhjmbn-10" value="&lt;u&gt;sec_sem&lt;/u&gt;" style="ellipse;whiteSpace=wrap;html=1;" parent="1" vertex="1">
          <mxGeometry x="617" y="550" width="90" height="40" as="geometry" />
        </mxCell>
        <mxCell id="viJihvqb_LY_vOOhjmbn-11" value="" style="endArrow=none;html=1;rounded=0;exitX=0.75;exitY=0;exitDx=0;exitDy=0;entryX=0.413;entryY=1.03;entryDx=0;entryDy=0;entryPerimeter=0;" parent="1" source="viJihvqb_LY_vOOhjmbn-9" target="viJihvqb_LY_vOOhjmbn-10" edge="1">
          <mxGeometry width="50" height="50" relative="1" as="geometry">
            <mxPoint x="612" y="671" as="sourcePoint" />
            <mxPoint x="577" y="600" as="targetPoint" />
          </mxGeometry>
        </mxCell>
        <mxCell id="viJihvqb_LY_vOOhjmbn-12" value="sec_croom" style="ellipse;whiteSpace=wrap;html=1;" parent="1" vertex="1">
          <mxGeometry x="531" y="735" width="90" height="40" as="geometry" />
        </mxCell>
        <mxCell id="viJihvqb_LY_vOOhjmbn-13" value="" style="endArrow=none;html=1;rounded=0;exitX=0.606;exitY=0.071;exitDx=0;exitDy=0;entryX=0.339;entryY=1.051;entryDx=0;entryDy=0;entryPerimeter=0;exitPerimeter=0;" parent="1" source="viJihvqb_LY_vOOhjmbn-12" target="viJihvqb_LY_vOOhjmbn-9" edge="1">
          <mxGeometry width="50" height="50" relative="1" as="geometry">
            <mxPoint x="511" y="814.9999999999995" as="sourcePoint" />
            <mxPoint x="466" y="785" as="targetPoint" />
          </mxGeometry>
        </mxCell>
        <mxCell id="viJihvqb_LY_vOOhjmbn-16" value="sec_number" style="ellipse;whiteSpace=wrap;html=1;" parent="1" vertex="1">
          <mxGeometry x="477" y="605" width="90" height="40" as="geometry" />
        </mxCell>
        <mxCell id="viJihvqb_LY_vOOhjmbn-17" value="" style="endArrow=none;html=1;rounded=0;exitX=0;exitY=0.75;exitDx=0;exitDy=0;entryX=0.76;entryY=0.97;entryDx=0;entryDy=0;entryPerimeter=0;" parent="1" source="viJihvqb_LY_vOOhjmbn-9" target="viJihvqb_LY_vOOhjmbn-16" edge="1">
          <mxGeometry width="50" height="50" relative="1" as="geometry">
            <mxPoint x="557" y="715" as="sourcePoint" />
            <mxPoint x="557" y="655" as="targetPoint" />
          </mxGeometry>
        </mxCell>
        <mxCell id="viJihvqb_LY_vOOhjmbn-18" value="&lt;u&gt;sec_bldg&lt;/u&gt;" style="ellipse;whiteSpace=wrap;html=1;" parent="1" vertex="1">
          <mxGeometry x="419" y="800" width="90" height="40" as="geometry" />
        </mxCell>
        <mxCell id="viJihvqb_LY_vOOhjmbn-19" value="" style="endArrow=none;html=1;rounded=0;exitX=0;exitY=1;exitDx=0;exitDy=0;entryX=1;entryY=0;entryDx=0;entryDy=0;" parent="1" source="viJihvqb_LY_vOOhjmbn-12" target="viJihvqb_LY_vOOhjmbn-18" edge="1">
          <mxGeometry width="50" height="50" relative="1" as="geometry">
            <mxPoint x="566" y="730" as="sourcePoint" />
            <mxPoint x="491" y="670" as="targetPoint" />
          </mxGeometry>
        </mxCell>
        <mxCell id="viJihvqb_LY_vOOhjmbn-20" value="&lt;u&gt;sec_room_no&lt;/u&gt;" style="ellipse;whiteSpace=wrap;html=1;" parent="1" vertex="1">
          <mxGeometry x="528.5" y="810" width="90" height="40" as="geometry" />
        </mxCell>
        <mxCell id="viJihvqb_LY_vOOhjmbn-21" value="" style="endArrow=none;html=1;rounded=0;" parent="1" edge="1">
          <mxGeometry width="50" height="50" relative="1" as="geometry">
            <mxPoint x="600" y="770" as="sourcePoint" />
            <mxPoint x="590" y="820" as="targetPoint" />
          </mxGeometry>
        </mxCell>
        <mxCell id="gwIvNxt496lw3pqiz0SI-1" value="sec_days_time" style="ellipse;whiteSpace=wrap;html=1;" vertex="1" parent="1">
          <mxGeometry x="720" y="720" width="90" height="40" as="geometry" />
        </mxCell>
        <mxCell id="gwIvNxt496lw3pqiz0SI-2" value="" style="endArrow=none;html=1;rounded=0;exitX=0.603;exitY=1.006;exitDx=0;exitDy=0;entryX=0;entryY=0.5;entryDx=0;entryDy=0;exitPerimeter=0;" edge="1" parent="1" target="gwIvNxt496lw3pqiz0SI-1" source="viJihvqb_LY_vOOhjmbn-9">
          <mxGeometry width="50" height="50" relative="1" as="geometry">
            <mxPoint x="610" y="770" as="sourcePoint" />
            <mxPoint x="625" y="770" as="targetPoint" />
          </mxGeometry>
        </mxCell>
        <mxCell id="gwIvNxt496lw3pqiz0SI-3" value="HAS_DEAN" style="shape=rhombus;perimeter=rhombusPerimeter;whiteSpace=wrap;html=1;align=center;" vertex="1" parent="1">
          <mxGeometry x="331" y="90" width="117" height="80" as="geometry" />
        </mxCell>
        <mxCell id="gwIvNxt496lw3pqiz0SI-4" value="" style="endArrow=none;html=1;rounded=0;exitX=1;exitY=0.5;exitDx=0;exitDy=0;entryX=0;entryY=0.5;entryDx=0;entryDy=0;" edge="1" parent="1" source="gwIvNxt496lw3pqiz0SI-3" target="DAMM4ajbRQ8YolOH-QEx-32">
          <mxGeometry relative="1" as="geometry">
            <mxPoint x="210" y="170" as="sourcePoint" />
            <mxPoint x="383" y="360" as="targetPoint" />
            <Array as="points">
              <mxPoint x="448" y="60" />
            </Array>
          </mxGeometry>
        </mxCell>
        <mxCell id="gwIvNxt496lw3pqiz0SI-6" value="ins_name" style="ellipse;whiteSpace=wrap;html=1;" vertex="1" parent="1">
          <mxGeometry x="521" y="-30" width="90" height="40" as="geometry" />
        </mxCell>
        <mxCell id="gwIvNxt496lw3pqiz0SI-8" value="" style="endArrow=none;html=1;rounded=0;entryX=0;entryY=0.5;entryDx=0;entryDy=0;exitX=1;exitY=1;exitDx=0;exitDy=0;" edge="1" parent="1" source="DAMM4ajbRQ8YolOH-QEx-3" target="gwIvNxt496lw3pqiz0SI-3">
          <mxGeometry relative="1" as="geometry">
            <mxPoint x="390" y="25" as="sourcePoint" />
            <mxPoint x="477" y="175" as="targetPoint" />
            <Array as="points">
              <mxPoint x="331" y="160" />
            </Array>
          </mxGeometry>
        </mxCell>
        <mxCell id="gwIvNxt496lw3pqiz0SI-9" value="1..1" style="text;html=1;align=center;verticalAlign=middle;whiteSpace=wrap;rounded=0;" vertex="1" parent="1">
          <mxGeometry x="450" y="100" width="47" height="20" as="geometry" />
        </mxCell>
        <mxCell id="gwIvNxt496lw3pqiz0SI-12" value="1..1" style="text;html=1;align=center;verticalAlign=middle;whiteSpace=wrap;rounded=0;" vertex="1" parent="1">
          <mxGeometry x="203" y="280" width="47" height="20" as="geometry" />
        </mxCell>
        <mxCell id="gwIvNxt496lw3pqiz0SI-13" value="ADMINISTERS" style="shape=rhombus;perimeter=rhombusPerimeter;whiteSpace=wrap;html=1;align=center;" vertex="1" parent="1">
          <mxGeometry x="120" y="210" width="117" height="80" as="geometry" />
        </mxCell>
        <mxCell id="gwIvNxt496lw3pqiz0SI-14" value="" style="endArrow=none;html=1;rounded=0;exitX=0.5;exitY=1;exitDx=0;exitDy=0;entryX=0;entryY=0.5;entryDx=0;entryDy=0;" edge="1" parent="1" source="gwIvNxt496lw3pqiz0SI-13" target="DAMM4ajbRQ8YolOH-QEx-12">
          <mxGeometry relative="1" as="geometry">
            <mxPoint x="288.5" y="311" as="sourcePoint" />
            <mxPoint x="355.5" y="551" as="targetPoint" />
            <Array as="points">
              <mxPoint x="180" y="340" />
            </Array>
          </mxGeometry>
        </mxCell>
        <mxCell id="gwIvNxt496lw3pqiz0SI-15" value="" style="endArrow=none;html=1;rounded=0;entryX=0.5;entryY=0;entryDx=0;entryDy=0;" edge="1" parent="1" target="gwIvNxt496lw3pqiz0SI-13">
          <mxGeometry relative="1" as="geometry">
            <mxPoint x="180" y="160" as="sourcePoint" />
            <mxPoint x="474" y="155" as="targetPoint" />
          </mxGeometry>
        </mxCell>
        <mxCell id="gwIvNxt496lw3pqiz0SI-16" value="1..N" style="text;html=1;align=center;verticalAlign=middle;whiteSpace=wrap;rounded=0;" vertex="1" parent="1">
          <mxGeometry x="173" y="190" width="47" height="20" as="geometry" />
        </mxCell>
        <mxCell id="gwIvNxt496lw3pqiz0SI-17" value="1..1" style="text;html=1;align=center;verticalAlign=middle;whiteSpace=wrap;rounded=0;" vertex="1" parent="1">
          <mxGeometry x="290" y="110" width="47" height="20" as="geometry" />
        </mxCell>
        <mxCell id="gwIvNxt496lw3pqiz0SI-19" value="HAS_CHAIR" style="shape=rhombus;perimeter=rhombusPerimeter;whiteSpace=wrap;html=1;align=center;" vertex="1" parent="1">
          <mxGeometry x="527" y="130" width="106" height="80" as="geometry" />
        </mxCell>
        <mxCell id="gwIvNxt496lw3pqiz0SI-20" value="" style="endArrow=none;html=1;rounded=0;entryX=0.75;entryY=0;entryDx=0;entryDy=0;" edge="1" parent="1" source="DAMM4ajbRQ8YolOH-QEx-39" target="DAMM4ajbRQ8YolOH-QEx-32">
          <mxGeometry relative="1" as="geometry">
            <mxPoint x="810" y="55" as="sourcePoint" />
            <mxPoint x="1047" y="165" as="targetPoint" />
          </mxGeometry>
        </mxCell>
        <mxCell id="gwIvNxt496lw3pqiz0SI-21" value="1..1" style="text;html=1;align=center;verticalAlign=middle;whiteSpace=wrap;rounded=0;" vertex="1" parent="1">
          <mxGeometry x="548.5" y="210" width="47" height="30" as="geometry" />
        </mxCell>
        <mxCell id="gwIvNxt496lw3pqiz0SI-22" value="1..1" style="text;html=1;align=center;verticalAlign=middle;whiteSpace=wrap;rounded=0;" vertex="1" parent="1">
          <mxGeometry x="681.5" y="110" width="47" height="20" as="geometry" />
        </mxCell>
        <mxCell id="gwIvNxt496lw3pqiz0SI-24" value="ins_phone" style="ellipse;whiteSpace=wrap;html=1;" vertex="1" parent="1">
          <mxGeometry x="775.5" y="90" width="90" height="40" as="geometry" />
        </mxCell>
        <mxCell id="gwIvNxt496lw3pqiz0SI-25" value="" style="endArrow=none;html=1;rounded=0;exitX=1;exitY=1;exitDx=0;exitDy=0;entryX=0;entryY=0.5;entryDx=0;entryDy=0;" edge="1" parent="1" target="gwIvNxt496lw3pqiz0SI-24" source="DAMM4ajbRQ8YolOH-QEx-32">
          <mxGeometry width="50" height="50" relative="1" as="geometry">
            <mxPoint x="780" y="255" as="sourcePoint" />
            <mxPoint x="735" y="225" as="targetPoint" />
          </mxGeometry>
        </mxCell>
        <mxCell id="gwIvNxt496lw3pqiz0SI-29" value="chair_start_date" style="ellipse;whiteSpace=wrap;html=1;" vertex="1" parent="1">
          <mxGeometry x="398" y="170" width="111" height="20" as="geometry" />
        </mxCell>
        <mxCell id="gwIvNxt496lw3pqiz0SI-32" value="" style="endArrow=none;html=1;rounded=0;exitX=0;exitY=0;exitDx=0;exitDy=0;entryX=0.5;entryY=0;entryDx=0;entryDy=0;" edge="1" parent="1" source="gwIvNxt496lw3pqiz0SI-19" target="gwIvNxt496lw3pqiz0SI-29">
          <mxGeometry width="50" height="50" relative="1" as="geometry">
            <mxPoint x="636" y="280" as="sourcePoint" />
            <mxPoint x="454" y="170" as="targetPoint" />
            <Array as="points">
              <mxPoint x="460" y="150" />
            </Array>
          </mxGeometry>
        </mxCell>
        <mxCell id="gwIvNxt496lw3pqiz0SI-37" value="1..N" style="text;html=1;align=center;verticalAlign=middle;whiteSpace=wrap;rounded=0;" vertex="1" parent="1">
          <mxGeometry x="687" y="210" width="47" height="20" as="geometry" />
        </mxCell>
        <mxCell id="gwIvNxt496lw3pqiz0SI-39" value="OFFERS" style="shape=rhombus;perimeter=rhombusPerimeter;whiteSpace=wrap;html=1;align=center;" vertex="1" parent="1">
          <mxGeometry x="652" y="330" width="106" height="80" as="geometry" />
        </mxCell>
        <mxCell id="gwIvNxt496lw3pqiz0SI-40" value="" style="endArrow=none;html=1;rounded=0;entryX=0;entryY=0.75;entryDx=0;entryDy=0;" edge="1" parent="1" target="DAMM4ajbRQ8YolOH-QEx-21">
          <mxGeometry relative="1" as="geometry">
            <mxPoint x="758" y="370" as="sourcePoint" />
            <mxPoint x="810" y="400" as="targetPoint" />
            <Array as="points">
              <mxPoint x="758" y="400" />
            </Array>
          </mxGeometry>
        </mxCell>
        <mxCell id="gwIvNxt496lw3pqiz0SI-41" value="" style="endArrow=none;html=1;rounded=0;exitX=0.5;exitY=1;exitDx=0;exitDy=0;entryX=0;entryY=0.5;entryDx=0;entryDy=0;" edge="1" parent="1" target="gwIvNxt496lw3pqiz0SI-39" source="DAMM4ajbRQ8YolOH-QEx-12">
          <mxGeometry relative="1" as="geometry">
            <mxPoint x="742" y="190" as="sourcePoint" />
            <mxPoint x="1072" y="285" as="targetPoint" />
            <Array as="points">
              <mxPoint x="410" y="410" />
              <mxPoint x="652" y="410" />
            </Array>
          </mxGeometry>
        </mxCell>
        <mxCell id="gwIvNxt496lw3pqiz0SI-42" value="WORKS_FOR" style="shape=rhombus;perimeter=rhombusPerimeter;whiteSpace=wrap;html=1;align=center;" vertex="1" parent="1">
          <mxGeometry x="640" y="130" width="106" height="80" as="geometry" />
        </mxCell>
        <mxCell id="gwIvNxt496lw3pqiz0SI-46" value="1..1" style="text;html=1;align=center;verticalAlign=middle;whiteSpace=wrap;rounded=0;" vertex="1" parent="1">
          <mxGeometry x="763" y="380" width="47" height="20" as="geometry" />
        </mxCell>
        <mxCell id="gwIvNxt496lw3pqiz0SI-47" value="1..N" style="text;html=1;align=center;verticalAlign=middle;whiteSpace=wrap;rounded=0;" vertex="1" parent="1">
          <mxGeometry x="613.5" y="380" width="47" height="20" as="geometry" />
        </mxCell>
        <mxCell id="gwIvNxt496lw3pqiz0SI-53" value="" style="endArrow=none;html=1;rounded=0;exitX=0.5;exitY=1;exitDx=0;exitDy=0;entryX=0.5;entryY=0;entryDx=0;entryDy=0;" edge="1" parent="1" source="DAMM4ajbRQ8YolOH-QEx-32" target="gwIvNxt496lw3pqiz0SI-19">
          <mxGeometry relative="1" as="geometry">
            <mxPoint x="890.0000000000005" y="175" as="sourcePoint" />
            <mxPoint x="497" y="250" as="targetPoint" />
            <Array as="points">
              <mxPoint x="637" y="130" />
            </Array>
          </mxGeometry>
        </mxCell>
        <mxCell id="gwIvNxt496lw3pqiz0SI-54" value="" style="endArrow=none;html=1;rounded=0;exitX=0.5;exitY=1;exitDx=0;exitDy=0;" edge="1" parent="1" source="gwIvNxt496lw3pqiz0SI-19">
          <mxGeometry relative="1" as="geometry">
            <mxPoint x="603" y="230" as="sourcePoint" />
            <mxPoint x="441" y="320" as="targetPoint" />
            <Array as="points">
              <mxPoint x="440" y="210" />
            </Array>
          </mxGeometry>
        </mxCell>
        <mxCell id="gwIvNxt496lw3pqiz0SI-55" value="0..1" style="text;html=1;align=center;verticalAlign=middle;whiteSpace=wrap;rounded=0;" vertex="1" parent="1">
          <mxGeometry x="566.5" y="100" width="47" height="20" as="geometry" />
        </mxCell>
        <mxCell id="gwIvNxt496lw3pqiz0SI-57" value="" style="endArrow=none;html=1;rounded=0;entryX=0.5;entryY=1;entryDx=0;entryDy=0;" edge="1" parent="1" target="gwIvNxt496lw3pqiz0SI-42">
          <mxGeometry relative="1" as="geometry">
            <mxPoint x="423" y="364" as="sourcePoint" />
            <mxPoint x="659" y="310" as="targetPoint" />
            <Array as="points">
              <mxPoint x="423" y="380" />
              <mxPoint x="640" y="380" />
              <mxPoint x="640" y="320" />
              <mxPoint x="693" y="320" />
            </Array>
          </mxGeometry>
        </mxCell>
        <mxCell id="gwIvNxt496lw3pqiz0SI-58" value="" style="endArrow=none;html=1;rounded=0;exitX=0.75;exitY=1;exitDx=0;exitDy=0;entryX=0.5;entryY=0;entryDx=0;entryDy=0;" edge="1" parent="1" target="gwIvNxt496lw3pqiz0SI-42">
          <mxGeometry relative="1" as="geometry">
            <mxPoint x="650" y="80" as="sourcePoint" />
            <mxPoint x="698" y="128" as="targetPoint" />
            <Array as="points">
              <mxPoint x="650" y="130" />
            </Array>
          </mxGeometry>
        </mxCell>
        <mxCell id="gwIvNxt496lw3pqiz0SI-63" value="ASSIGNED_TO" style="shape=rhombus;perimeter=rhombusPerimeter;whiteSpace=wrap;html=1;align=center;" vertex="1" parent="1">
          <mxGeometry x="227.5" y="370" width="103.5" height="80" as="geometry" />
        </mxCell>
        <mxCell id="gwIvNxt496lw3pqiz0SI-64" value="" style="endArrow=none;html=1;rounded=0;exitX=1;exitY=0.5;exitDx=0;exitDy=0;" edge="1" parent="1" source="gwIvNxt496lw3pqiz0SI-63">
          <mxGeometry width="50" height="50" relative="1" as="geometry">
            <mxPoint x="324" y="400" as="sourcePoint" />
            <mxPoint x="390" y="360" as="targetPoint" />
            <Array as="points">
              <mxPoint x="390" y="410" />
            </Array>
          </mxGeometry>
        </mxCell>
        <mxCell id="gwIvNxt496lw3pqiz0SI-65" value="" style="endArrow=none;html=1;rounded=0;entryX=0.5;entryY=0;entryDx=0;entryDy=0;" edge="1" parent="1" source="gwIvNxt496lw3pqiz0SI-63" target="DAMM4ajbRQ8YolOH-QEx-43">
          <mxGeometry width="50" height="50" relative="1" as="geometry">
            <mxPoint x="334" y="410" as="sourcePoint" />
            <mxPoint x="160" y="570" as="targetPoint" />
            <Array as="points">
              <mxPoint x="160" y="410" />
            </Array>
          </mxGeometry>
        </mxCell>
        <mxCell id="gwIvNxt496lw3pqiz0SI-66" value="1..1" style="text;html=1;align=center;verticalAlign=middle;whiteSpace=wrap;rounded=0;" vertex="1" parent="1">
          <mxGeometry x="220" y="430" width="47" height="20" as="geometry" />
        </mxCell>
        <mxCell id="gwIvNxt496lw3pqiz0SI-67" value="0..N" style="text;html=1;align=center;verticalAlign=middle;whiteSpace=wrap;rounded=0;" vertex="1" parent="1">
          <mxGeometry x="284" y="360" width="47" height="20" as="geometry" />
        </mxCell>
        <mxCell id="gwIvNxt496lw3pqiz0SI-68" value="OFFERED_AS" style="shape=rhombus;perimeter=rhombusPerimeter;whiteSpace=wrap;html=1;align=center;" vertex="1" parent="1">
          <mxGeometry x="761.5" y="480" width="106" height="80" as="geometry" />
        </mxCell>
        <mxCell id="gwIvNxt496lw3pqiz0SI-69" value="" style="endArrow=none;html=1;rounded=0;entryX=0.5;entryY=1;entryDx=0;entryDy=0;exitX=0.5;exitY=0;exitDx=0;exitDy=0;" edge="1" parent="1" source="gwIvNxt496lw3pqiz0SI-68" target="DAMM4ajbRQ8YolOH-QEx-21">
          <mxGeometry relative="1" as="geometry">
            <mxPoint x="908" y="500" as="sourcePoint" />
            <mxPoint x="970" y="520" as="targetPoint" />
            <Array as="points">
              <mxPoint x="815" y="440" />
              <mxPoint x="870" y="440" />
            </Array>
          </mxGeometry>
        </mxCell>
        <mxCell id="gwIvNxt496lw3pqiz0SI-70" value="" style="endArrow=none;html=1;rounded=0;exitX=1;exitY=0.25;exitDx=0;exitDy=0;entryX=0.5;entryY=1;entryDx=0;entryDy=0;" edge="1" parent="1" target="gwIvNxt496lw3pqiz0SI-68" source="viJihvqb_LY_vOOhjmbn-9">
          <mxGeometry relative="1" as="geometry">
            <mxPoint x="560" y="490" as="sourcePoint" />
            <mxPoint x="1222" y="415" as="targetPoint" />
            <Array as="points">
              <mxPoint x="815" y="670" />
            </Array>
          </mxGeometry>
        </mxCell>
        <mxCell id="gwIvNxt496lw3pqiz0SI-71" value="0..N" style="text;html=1;align=center;verticalAlign=middle;whiteSpace=wrap;rounded=0;" vertex="1" parent="1">
          <mxGeometry x="827" y="470" width="47" height="20" as="geometry" />
        </mxCell>
        <mxCell id="gwIvNxt496lw3pqiz0SI-72" value="1..1" style="text;html=1;align=center;verticalAlign=middle;whiteSpace=wrap;rounded=0;" vertex="1" parent="1">
          <mxGeometry x="758" y="545" width="47" height="20" as="geometry" />
        </mxCell>
        <mxCell id="gwIvNxt496lw3pqiz0SI-74" value="" style="endArrow=none;html=1;rounded=0;" edge="1" parent="1">
          <mxGeometry width="50" height="50" relative="1" as="geometry">
            <mxPoint x="690" y="69" as="sourcePoint" />
            <mxPoint x="1180" y="69" as="targetPoint" />
          </mxGeometry>
        </mxCell>
        <mxCell id="gwIvNxt496lw3pqiz0SI-75" value="" style="endArrow=none;html=1;rounded=0;entryX=0.5;entryY=0;entryDx=0;entryDy=0;" edge="1" parent="1" target="gwIvNxt496lw3pqiz0SI-77">
          <mxGeometry width="50" height="50" relative="1" as="geometry">
            <mxPoint x="1180" y="70" as="sourcePoint" />
            <mxPoint x="1180" y="500" as="targetPoint" />
          </mxGeometry>
        </mxCell>
        <mxCell id="gwIvNxt496lw3pqiz0SI-76" value="" style="endArrow=none;html=1;rounded=0;" edge="1" parent="1">
          <mxGeometry width="50" height="50" relative="1" as="geometry">
            <mxPoint x="680" y="680" as="sourcePoint" />
            <mxPoint x="1180" y="680" as="targetPoint" />
          </mxGeometry>
        </mxCell>
        <mxCell id="gwIvNxt496lw3pqiz0SI-77" value="TEACHES" style="rhombus;whiteSpace=wrap;html=1;" vertex="1" parent="1">
          <mxGeometry x="1140" y="530" width="80" height="80" as="geometry" />
        </mxCell>
        <mxCell id="gwIvNxt496lw3pqiz0SI-78" value="" style="endArrow=none;html=1;rounded=0;entryX=0.5;entryY=1;entryDx=0;entryDy=0;" edge="1" parent="1" target="gwIvNxt496lw3pqiz0SI-77">
          <mxGeometry width="50" height="50" relative="1" as="geometry">
            <mxPoint x="1180" y="680" as="sourcePoint" />
            <mxPoint x="1230" y="640" as="targetPoint" />
          </mxGeometry>
        </mxCell>
        <mxCell id="gwIvNxt496lw3pqiz0SI-79" value="0..N" style="text;html=1;align=center;verticalAlign=middle;whiteSpace=wrap;rounded=0;" vertex="1" parent="1">
          <mxGeometry x="1140" y="510" width="47" height="20" as="geometry" />
        </mxCell>
        <mxCell id="gwIvNxt496lw3pqiz0SI-80" value="1..1" style="text;html=1;align=center;verticalAlign=middle;whiteSpace=wrap;rounded=0;" vertex="1" parent="1">
          <mxGeometry x="1130" y="610" width="47" height="20" as="geometry" />
        </mxCell>
        <mxCell id="gwIvNxt496lw3pqiz0SI-81" value="" style="endArrow=none;html=1;rounded=0;entryX=0.75;entryY=1;entryDx=0;entryDy=0;" edge="1" parent="1" target="gwIvNxt496lw3pqiz0SI-85">
          <mxGeometry width="50" height="50" relative="1" as="geometry">
            <mxPoint x="200" y="620" as="sourcePoint" />
            <mxPoint x="330" y="650" as="targetPoint" />
            <Array as="points">
              <mxPoint x="200" y="650" />
            </Array>
          </mxGeometry>
        </mxCell>
        <mxCell id="gwIvNxt496lw3pqiz0SI-82" value="ENROLLS" style="rhombus;whiteSpace=wrap;html=1;" vertex="1" parent="1">
          <mxGeometry x="339" y="610" width="80" height="80" as="geometry" />
        </mxCell>
        <mxCell id="gwIvNxt496lw3pqiz0SI-83" value="" style="endArrow=none;html=1;rounded=0;exitX=1;exitY=0.5;exitDx=0;exitDy=0;" edge="1" parent="1" source="gwIvNxt496lw3pqiz0SI-82">
          <mxGeometry width="50" height="50" relative="1" as="geometry">
            <mxPoint x="450" y="700" as="sourcePoint" />
            <mxPoint x="580" y="690" as="targetPoint" />
            <Array as="points">
              <mxPoint x="420" y="690" />
            </Array>
          </mxGeometry>
        </mxCell>
        <mxCell id="gwIvNxt496lw3pqiz0SI-85" value="1..N" style="text;html=1;align=center;verticalAlign=middle;whiteSpace=wrap;rounded=0;" vertex="1" parent="1">
          <mxGeometry x="310" y="630" width="47" height="20" as="geometry" />
        </mxCell>
        <mxCell id="gwIvNxt496lw3pqiz0SI-86" value="1..N" style="text;html=1;align=center;verticalAlign=middle;whiteSpace=wrap;rounded=0;" vertex="1" parent="1">
          <mxGeometry x="414" y="670" width="47" height="20" as="geometry" />
        </mxCell>
        <mxCell id="gwIvNxt496lw3pqiz0SI-87" value="stud_grade" style="ellipse;whiteSpace=wrap;html=1;" vertex="1" parent="1">
          <mxGeometry x="270" y="760" width="92" height="40" as="geometry" />
        </mxCell>
        <mxCell id="gwIvNxt496lw3pqiz0SI-88" value="" style="endArrow=none;html=1;rounded=0;exitX=0.356;exitY=0.849;exitDx=0;exitDy=0;entryX=0.6;entryY=0.022;entryDx=0;entryDy=0;entryPerimeter=0;exitPerimeter=0;" edge="1" parent="1" target="gwIvNxt496lw3pqiz0SI-87" source="gwIvNxt496lw3pqiz0SI-82">
          <mxGeometry width="50" height="50" relative="1" as="geometry">
            <mxPoint x="380" y="760" as="sourcePoint" />
            <mxPoint x="453" y="790" as="targetPoint" />
          </mxGeometry>
        </mxCell>
      </root>
    </mxGraphModel>
  </diagram>
</mxfile>
